<?xml version="1.0" encoding="utf-8"?>
<!-- Generator: Adobe Illustrator 21.0.2, SVG Export Plug-In . SVG Version: 6.00 Build 0)  -->
<svg version="1.1" id="Layer_1" xmlns="http://www.w3.org/2000/svg" xmlns:xlink="http://www.w3.org/1999/xlink" x="0px" y="0px"
	 viewBox="0 0 512 512" style="enable-background:new 0 0 512 512;" xml:space="preserve">
<style type="text/css">
	.st0{fill:#FFE164;}
	.st1{fill:#41B883;}
	.st2{fill:#FFFFFF;}
	.st3{fill:#959CB3;}
	.st4{fill:#707487;}
	.st5{fill:#E4EAF6;}
	.st6{fill:#C7CFE2;}
	.st7{fill:#34845C;}
	.st8{fill:#5B5D6E;}
	.st9{fill:#AFB9D2;}
</style>
<g>
	<path class="st0" d="M132.4,467.9L132.4,467.9c-4.9,0-8.8-4-8.8-8.8V335.4c0-4.9,4-8.8,8.8-8.8l0,0c4.9,0,8.8,4,8.8,8.8V459
		C141.2,463.9,137.3,467.9,132.4,467.9z"/>
	<path class="st0" d="M379.6,467.9L379.6,467.9c-4.9,0-8.8-4-8.8-8.8V335.4c0-4.9,4-8.8,8.8-8.8l0,0c4.9,0,8.8,4,8.8,8.8V459
		C388.4,463.9,384.5,467.9,379.6,467.9z"/>
	<path class="st0" d="M344.3,370.8L344.3,370.8c-4.9,0-8.8-4-8.8-8.8v-97.1c0-4.9,4-8.8,8.8-8.8l0,0c4.9,0,8.8,4,8.8,8.8v97.1
		C353.1,366.8,349.2,370.8,344.3,370.8z"/>
	<path class="st0" d="M167.7,370.8L167.7,370.8c-4.9,0-8.8-4-8.8-8.8v-97.1c0-4.9,4-8.8,8.8-8.8l0,0c4.9,0,8.8,4,8.8,8.8v97.1
		C176.6,366.8,172.6,370.8,167.7,370.8z"/>
</g>
<path class="st1" d="M256,150.1L130.2,250.7c-4.2,3.4-6.6,8.4-6.6,13.8V309L256,282.5L388.4,309v-44.5c0-5.4-2.4-10.4-6.6-13.8
	L256,150.1z"/>
<path class="st0" d="M225.1,361.9c0,29.6,3.6,93.2,24.4,145.4c2.5,6.3,10.5,6.3,13,0c20.8-52.2,24.4-115.8,24.4-145.4H225.1z"/>
<path class="st2" d="M238.3,361.9c0,14.2,2.5,46.3,17.7,70c15.2-23.8,17.7-55.9,17.7-70H238.3z"/>
<path class="st3" d="M299.9,351l-10.5-42h-66.8l-10.5,42c-0.7,2.6-0.1,5.4,1.6,7.6s4.2,3.4,7,3.4h70.6c2.7,0,5.3-1.3,7-3.4
	C299.9,356.4,300.5,353.6,299.9,351z"/>
<path class="st4" d="M238.6,351l10.5-42h-26.5l-10.5,42c-0.7,2.6-0.1,5.4,1.6,7.6s4.2,3.4,7,3.4h26.5c-2.7,0-5.3-1.3-7-3.4
	S237.9,353.6,238.6,351z"/>
<path class="st5" d="M248.6,4.3l-41.1,73.5C204.6,83,203,89,203,95V309c0,9.8,7.9,17.7,17.7,17.7h70.6c9.8,0,17.7-7.9,17.7-17.7V95
	c0-6-1.5-12-4.5-17.2L263.4,4.3C260.1-1.4,251.9-1.4,248.6,4.3z"/>
<path class="st6" d="M238.3,309V95c0-6,0.6-12,1.9-17.2l17.1-73.5c0.3-1.5,0.9-2.7,1.6-3.7c-3.7-1.4-8.1-0.2-10.3,3.7l-41.1,73.5
	C204.6,83,203,89,203,95V309c0,9.8,7.9,17.7,17.7,17.7h25C241.6,326.6,238.3,318.7,238.3,309z"/>
<path class="st1" d="M263.4,4.3c-3.2-5.8-11.5-5.8-14.7,0l-41.1,73.5C204.6,83,203,89,203,95v46.2H309V95c0-6-1.5-12-4.5-17.2
	L263.4,4.3z"/>
<path class="st7" d="M238.3,95c0-6,0.6-12,1.9-17.2l17.1-73.5c0.3-1.5,0.9-2.7,1.6-3.7c-1.8-0.7-3.8-0.7-5.6-0.1
	c-0.1,0-0.3,0.1-0.4,0.2c-0.7,0.3-1.3,0.6-1.9,1.1c-0.2,0.1-0.4,0.3-0.6,0.4c-0.7,0.6-1.3,1.3-1.8,2.2l-41.1,73.5
	C204.6,83,203,89,203,95v46.2h35.3L238.3,95L238.3,95z"/>
<path class="st6" d="M309,141.2H203v17.7h22.6c6.1,10.5,17.3,17.7,30.3,17.7c13,0,24.2-7.1,30.3-17.7H309L309,141.2L309,141.2z"/>
<circle class="st8" cx="256" cy="141.2" r="17.7"/>
<path class="st9" d="M238.3,171.7v-30.5H203v17.7h22.6C228.7,164.2,233.1,168.6,238.3,171.7z"/>
<path class="st4" d="M248.6,4.3l-32.2,57.5h79L263.4,4.3C260.1-1.4,251.9-1.4,248.6,4.3z"/>
<path class="st8" d="M243.9,61.8l13.4-57.5c0.3-1.5,0.9-2.7,1.6-3.7c-1.8-0.7-3.8-0.7-5.6-0.1c0,0-0.1,0-0.1,0
	c-0.1,0-0.2,0.1-0.3,0.1c-0.7,0.3-1.3,0.6-1.9,1.1c-0.1,0-0.1,0.1-0.2,0.1c-0.1,0.1-0.3,0.2-0.4,0.3c-0.7,0.6-1.3,1.3-1.8,2.2
	l-32.2,57.5L243.9,61.8L243.9,61.8z"/>
<g>
	<polygon class="st7" points="123.6,309 203,293.1 203,256 123.6,277.2 	"/>
	<polygon class="st7" points="388.4,309 309,293.1 309,256 388.4,277.2 	"/>
</g>
<g>
	<path class="st9" d="M132.4,264.8L132.4,264.8c-4.9,0-8.8,4-8.8,8.8v70.6c0,4.9,4,8.8,8.8,8.8l0,0c4.9,0,8.8-4,8.8-8.8v-70.6
		C141.2,268.8,137.3,264.8,132.4,264.8z"/>
	<path class="st9" d="M167.7,256L167.7,256c-4.9,0-8.8,4-8.8,8.8V309c0,4.9,4,8.8,8.8,8.8l0,0c4.9,0,8.8-4,8.8-8.8v-44.1
		C176.6,259.9,172.6,256,167.7,256z"/>
	<path class="st9" d="M379.6,264.8L379.6,264.8c4.9,0,8.8,4,8.8,8.8v70.6c0,4.9-4,8.8-8.8,8.8l0,0c-4.9,0-8.8-4-8.8-8.8v-70.6
		C370.8,268.8,374.7,264.8,379.6,264.8z"/>
	<path class="st9" d="M344.3,256L344.3,256c4.9,0,8.8,4,8.8,8.8V309c0,4.9-4,8.8-8.8,8.8l0,0c-4.9,0-8.8-4-8.8-8.8v-44.1
		C335.5,259.9,339.4,256,344.3,256z"/>
</g>
<g>
	<circle class="st3" cx="132.6" cy="273.5" r="9"/>
	<circle class="st3" cx="167.7" cy="264.8" r="9"/>
	<circle class="st3" cx="379.4" cy="273.5" r="9"/>
	<circle class="st3" cx="344.3" cy="264.8" r="9"/>
</g>
<g>
	<path class="st6" d="M256,291.3L256,291.3c4.9,0,8.8-4,8.8-8.8v-35.3c0-4.9-4-8.8-8.8-8.8l0,0c-4.9,0-8.8,4-8.8,8.8v35.3
		C247.2,287.4,251.1,291.3,256,291.3z"/>
	<path class="st6" d="M282.5,291.3L282.5,291.3c4.9,0,8.8-4,8.8-8.8v-35.3c0-4.9-4-8.8-8.8-8.8l0,0c-4.9,0-8.8,4-8.8,8.8v35.3
		C273.7,287.4,277.6,291.3,282.5,291.3z"/>
</g>
<path class="st9" d="M229.5,291.3L229.5,291.3c4.9,0,8.8-4,8.8-8.8v-35.3c0-4.9-4-8.8-8.8-8.8l0,0c-4.9,0-8.8,4-8.8,8.8v35.3
	C220.7,287.4,224.6,291.3,229.5,291.3z"/>
</svg>
